<svg xmlns="http://www.w3.org/2000/svg" xmlns:xlink="http://www.w3.org/1999/xlink" xmlns:inkscape="http://www.inkscape.org/namespaces/inkscape" version="1.1" width="166" height="185" viewBox="0 0 166 185">
<defs>
<path id="font_1_5" d="M.33399964 .30233766C.33999635 .32835389 .36299134 .42037965 .43299867 .42037965 .43798829 .42037965 .46199037 .42037965 .48298646 .40734864 .45498658 .402359 .43499757 .37734986 .43499757 .35334779 .43499757 .33735658 .44599916 .31835938 .47299195 .31835938 .49499513 .31835938 .5269928 .3363495 .5269928 .37635804 .5269928 .42837525 .46798707 .4423828 .43399049 .4423828 .37599183 .4423828 .34098817 .38935853 .32899476 .36634828 .3039856 .43237306 .25 .4423828 .22099304 .4423828 .116989139 .4423828 .05999756 .3133545 .05999756 .28834535 .05999756 .27833558 .069992069 .27833558 .07199097 .27833558 .07998657 .27833558 .08299255 .28033448 .084991458 .28933717 .11898804 .39535523 .18499756 .42037965 .21899414 .42037965 .23799134 .42037965 .272995 .4113617 .272995 .35334779 .272995 .32235719 .2559967 .25532533 .21899414 .11528015 .20298767 .053268434 .16799927 .011245728 .12399292 .011245728 .117996219 .011245728 .09498596 .011245728 .07398987 .024276734 .09899902 .029266358 .12098694 .05027771 .12098694 .07827759 .12098694 .105270389 .09899902 .11328125 .083999637 .11328125 .053985597 .11328125 .0289917 .08728027 .0289917 .055267335 .0289917 .009246826 .07899475-.0107421879 .12298584-.0107421879 .18899536-.0107421879 .22499085 .059280397 .22799683 .0652771 .23999024 .028274537 .27598573-.0107421879 .33599855-.0107421879 .43899537-.0107421879 .49598695 .118270877 .49598695 .14328003 .49598695 .1532898 .4869995 .1532898 .48399354 .1532898 .47499085 .1532898 .47299195 .14929199 .47099305 .14228821 .43798829 .03527832 .36999513 .011245728 .33799745 .011245728 .29899598 .011245728 .2829895 .043273927 .2829895 .07727051 .2829895 .09927368 .2889862 .121276859 .2999878 .16529846L.33399964 .30233766Z"/>
<path id="font_1_6" d="M.48599244 .38136292C.48999024 .39537049 .48999024 .39736939 .48999024 .40437318 .48999024 .42237855 .47599793 .43138124 .46099855 .43138124 .45098878 .43138124 .43499757 .42536927 .42599488 .41036988 .42399598 .405365 .41600038 .37435914 .4119873 .35635377 .40499879 .33035279 .397995 .30334474 .3919983 .27633668L.34700013 .09628296C.34298707 .08126831 .2999878 .011245728 .23399353 .011245728 .18299866 .011245728 .17199707 .055267335 .17199707 .0922699 .17199707 .1382904 .18899536 .20030213 .22299195 .28833009 .23899842 .3293457 .24299622 .3403473 .24299622 .36035157 .24299622 .405365 .21099854 .4423828 .16099549 .4423828 .06599426 .4423828 .0289917 .29733277 .0289917 .28833009 .0289917 .27833558 .038986207 .27833558 .040985109 .27833558 .050994874 .27833558 .051986696 .28033448 .056991579 .29634095 .083999637 .3903656 .12399292 .42037965 .1579895 .42037965 .1659851 .42037965 .18299866 .42037965 .18299866 .3883667 .18299866 .36335755 .17298889 .3373413 .1659851 .31834413 .12599182 .21231079 .10798645 .1552887 .10798645 .10827637 .10798645 .019256592 .17098999-.0107421879 .22999573-.0107421879 .2689972-.0107421879 .30299378 .0062561037 .33099366 .03425598 .31799317-.017745972 .30599977-.06674194 .2659912-.11973572 .23999024-.15385437 .20199585-.18309021 .1559906-.18309021 .14199829-.18309021 .09700012-.18005371 .07998657-.14074707 .09599304-.14074707 .10899353-.14074707 .12298584-.1287384 .1329956-.11973572 .14299011-.10673523 .14299011-.08773804 .14299011-.056747438 .115997318-.052734376 .10598755-.052734376 .08299255-.052734376 .049987794-.068740848 .049987794-.11773682 .049987794-.16796875 .09399414-.20507813 .1559906-.20507813 .25898744-.20507813 .3619995-.11373901 .3899994-.00074768069L.48599244 .38136292Z"/>
<path id="font_1_4" d="M.08799744 .059265138C.084991458 .044265748 .07899475 .021255494 .07899475 .01625061 .07899475-.0017547608 .09298706-.0107421879 .10798645-.0107421879 .11999512-.0107421879 .13798523-.002746582 .14498902 .01725769 .14698792 .021255494 .18099976 .15730286 .18499756 .17530823 .19299317 .20831299 .21099854 .27833558 .21699524 .30534364 .22099304 .31835938 .24899292 .36535646 .272995 .38734437 .2809906 .39434815 .30999757 .42037965 .35299684 .42037965 .3789978 .42037965 .3939972 .4083557 .394989 .4083557 .36499024 .40335084 .34298707 .37934876 .34298707 .35334779 .34298707 .33735658 .35398866 .31835938 .3809967 .31835938 .4079895 .31835938 .43598939 .34135438 .43598939 .37734986 .43598939 .41235353 .4039917 .4423828 .35299684 .4423828 .28799439 .4423828 .24398804 .39335633 .22499085 .36535646 .21699524 .4103546 .18099976 .4423828 .13398743 .4423828 .08799744 .4423828 .068984989 .40335084 .05999756 .38534547 .041992189 .35134889 .0289917 .29133607 .0289917 .28834535 .0289917 .27833558 .038986207 .27833558 .040985109 .27833558 .050994874 .27833558 .051986696 .27934266 .057998659 .30134584 .07499695 .37234498 .09498596 .42037965 .1309967 .42037965 .147995 .42037965 .1619873 .41235353 .1619873 .37435914 .1619873 .35334779 .15899658 .3423462 .1459961 .29034425L.08799744 .059265138Z"/>
<path id="font_2_5" d="M.68699648 .32714845C.70199587 .32714845 .72099307 .32714845 .72099307 .34713746 .72099307 .36714173 .70199587 .36714173 .6879883 .36714173H.08898926C.07499695 .36714173 .055999757 .36714173 .055999757 .34713746 .055999757 .32714845 .07499695 .32714845 .08999634 .32714845H.68699648M.6879883 .13284302C.70199587 .13284302 .72099307 .13284302 .72099307 .15284729 .72099307 .17285156 .70199587 .17285156 .68699648 .17285156H.08999634C.07499695 .17285156 .055999757 .17285156 .055999757 .15284729 .055999757 .13284302 .07499695 .13284302 .08898926 .13284302H.6879883Z"/>
<path id="font_1_1" d="M.45498658 .5001831C.45498658 .56614688 .43699647 .7050781 .33499146 .7050781 .19599915 .7050781 .041992189 .42323304 .041992189 .19425965 .041992189 .100250247 .070999149-.0107421879 .1619873-.0107421879 .30299378-.0107421879 .45498658 .27627564 .45498658 .5001831M.147995 .36328126C.16499329 .42723084 .18499756 .5071869 .22499085 .57814028 .2519989 .6271057 .2889862 .68307498 .33399964 .68307498 .3829956 .68307498 .3889923 .6191101 .3889923 .56214907 .3889923 .5131836 .3809967 .46220399 .35699464 .36328126H.147995M.34799195 .3312683C.33699037 .28527833 .31599427 .2002716 .27799989 .12826538 .24299622 .060256959 .20498657 .011245728 .1619873 .011245728 .1289978 .011245728 .10798645 .040252687 .10798645 .133255 .10798645 .17526245 .11399841 .23326111 .13999939 .3312683H.34799195Z"/>
<path id="font_1_3" d="M.43899537 .71199038C.44400025 .72499087 .44400025 .72898867 .44400025 .7299957 .44400025 .7409973 .43499757 .75 .42399598 .75 .4169922 .75 .4099884 .746994 .40699769 .7409973L.05999756-.21200562C.054992677-.2250061 .054992677-.2290039 .054992677-.23001099 .054992677-.24101258 .06399536-.25 .07499695-.25 .08799744-.25 .09098816-.24301148 .09700012-.22601319L.43899537 .71199038Z"/>
<path id="font_2_1" d="M.33099366-.2400055C.33099366-.23701477 .33099366-.23500061 .31399537-.21800232 .18899536-.0920105 .15699768 .09700012 .15699768 .25 .15699768 .42399598 .19499207 .59799197 .31799317 .72299197 .33099366 .73498538 .33099366 .7369995 .33099366 .73999026 .33099366 .746994 .32699586 .75 .32099916 .75 .31098939 .75 .22099304 .6819916 .1619873 .5549927 .11099243 .44499208 .09899902 .33399964 .09899902 .25 .09899902 .17199707 .10998535 .050994874 .16499329-.06201172 .22499085-.18501282 .31098939-.25 .32099916-.25 .32699586-.25 .33099366-.24700928 .33099366-.2400055Z"/>
<path id="font_2_3" d="M.1269989 .07699585 .23298645 .18003845C.3889923 .31811524 .44898988 .3721466 .44898988 .47216798 .44898988 .5860901 .35899354 .6660156 .23699951 .6660156 .12399292 .6660156 .049987794 .57411196 .049987794 .48516847 .049987794 .4291687 .099990848 .4291687 .102996829 .4291687 .11999512 .4291687 .15499878 .44117738 .15499878 .48217774 .15499878 .5081787 .13699341 .5341797 .101989749 .5341797 .09399414 .5341797 .09199524 .5341797 .08898926 .5331726 .11199951 .59806826 .1659851 .63500979 .22399903 .63500979 .31498719 .63500979 .35798646 .5541382 .35798646 .47216798 .35798646 .39215089 .30799867 .31311036 .25299073 .25108338L.06098938 .036987306C.049987794 .025985718 .049987794 .023986817 .049987794 0H.42099L.44898988 .17404175H.42399598C.4189911 .14402771 .4119873 .1000061 .4019928 .084991458 .394989 .07699585 .32899476 .07699585 .30699159 .07699585H.1269989Z"/>
<path id="font_1_2" d="M.2649994 .37265016H.37799073C.34498597 .22489929 .33599855 .18196106 .33599855 .11508179 .33599855 .100097659 .33599855 .073150638 .34399415 .03919983 .35398866-.0047454836 .36499024-.0107421879 .37998963-.0107421879 .3999939-.0107421879 .42099 .007247925 .42099 .02722168 .42099 .033218385 .42099 .035202028 .4149933 .049179079 .38598634 .12106323 .38598634 .18595886 .38598634 .21391297 .38598634 .26683045 .3929901 .32073976 .4039917 .37265016H.5179901C.5309906 .37265016 .5669861 .37265016 .5669861 .406662 .5669861 .43066407 .54599 .43066407 .5269928 .43066407H.19198609C.16999817 .43066407 .13198853 .43066407 .08799744 .38365174 .052993776 .34469605 .026992798 .29878236 .026992798 .29379273 .026992798 .29278565 .026992798 .28379823 .038986207 .28379823 .04699707 .28379823 .04899597 .28779603 .054992677 .29577638 .10398865 .37265016 .1619873 .37265016 .18199158 .37265016H.23899842C.20698548 .25186158 .15299988 .13105774 .11099243 .04020691 .102996829 .025222779 .102996829 .023223877 .102996829 .016235352 .102996829-.002746582 .11898804-.0107421879 .13198853-.0107421879 .1619873-.0107421879 .16999817 .017242432 .18199158 .05418396 .19599915 .100097659 .19599915 .10209656 .20899964 .15202332L.2649994 .37265016Z"/>
<path id="font_2_2" d="M.2889862 .25C.2889862 .32798768 .27799989 .44898988 .22299195 .56199648 .16299439 .68499758 .07699585 .75 .066986087 .75 .06098938 .75 .056991579 .74598696 .056991579 .73999026 .056991579 .7369995 .056991579 .73498538 .07598877 .71699526 .17399597 .6179962 .23098755 .45899964 .23098755 .25 .23098755 .07899475 .19400025-.09700012 .069992069-.2230072 .056991579-.23500061 .056991579-.23701477 .056991579-.2400055 .056991579-.2460022 .06098938-.25 .066986087-.25 .07699585-.25 .16699219-.18200684 .22599793-.055007936 .2769928 .054992677 .2889862 .16600037 .2889862 .25Z"/>
<path id="font_3_28" d="M.48298646 .08912659V.14511109H.45799256V.08912659C.45799256 .03112793 .43299867 .025131226 .42199708 .025131226 .3889923 .025131226 .3849945 .070129398 .3849945 .07511902V.27508546C.3849945 .31707765 .3849945 .3560791 .34899903 .39312745 .30999757 .43223573 .2599945 .4482422 .21199036 .4482422 .12998963 .4482422 .06098938 .40115357 .06098938 .335083 .06098938 .30508424 .08099365 .28808595 .10699463 .28808595 .1349945 .28808595 .15299988 .30807496 .15299988 .33407594 .15299988 .3460846 .147995 .37908937 .101989749 .38008119 .1289978 .41519166 .17799378 .426239 .20999146 .426239 .25898744 .426239 .31599427 .38710023 .31599427 .29808045V.26107789C.2649994 .25808717 .19499207 .25508119 .13198853 .22509766 .056991579 .19110108 .03199768 .13911438 .03199768 .09512329 .03199768 .014251709 .1289978-.0107421879 .19198609-.0107421879 .2579956-.0107421879 .3039856 .029251099 .32299806 .07624817 .32699586 .036132814 .35398866-.005859375 .40098573-.005859375 .42199708-.005859375 .48298646 .008132935 .48298646 .08912659M.31599427 .14013672C.31599427 .04525757 .24398804 .011245728 .19898987 .011245728 .1499939 .011245728 .10899353 .04624939 .10899353 .09625244 .10899353 .15124512 .15098572 .23425293 .31599427 .24024964V.14013672Z"/>
<path id="font_3_96" d="M.3639984 .38137818C.3639984 .41337586 .33299256 .4423828 .2899933 .4423828 .21699524 .4423828 .18099976 .37538148 .16699219 .3323822V.4423828L.027999878 .43066407V.3996582C.09799194 .3996582 .10598755 .39266969 .10598755 .34370423V.07595825C.10598755 .0309906 .09498596 .0309906 .027999878 .0309906V0L.14199829 .0029907227C.18199158 .0029907227 .22898865 .0029907227 .2689972 0V.0309906H.24798584C.17399597 .0309906 .17199707 .04197693 .17199707 .07795715V.23181153C.17199707 .33137513 .21398926 .42037965 .2899933 .42037965 .29699708 .42037965 .29899598 .42037965 .30099488 .41937257 .2979889 .41838075 .27799989 .40637208 .27799989 .3803711 .27799989 .35237123 .29899598 .33737184 .32099916 .33737184 .33898927 .33737184 .3639984 .3493805 .3639984 .38137818Z"/>
<path id="font_3_50" d="M.4149933 .11933899C.4149933 .12934876 .40699769 .13134766 .4019928 .13134766 .3929901 .13134766 .3909912 .12535095 .3889923 .11734009 .35398866 .014251709 .2639923 .014251709 .2539978 .014251709 .20399475 .014251709 .1639862 .044281007 .14099121 .08131409 .11099243 .12934876 .11099243 .19540406 .11099243 .23144531H.3899994C.4119873 .23144531 .4149933 .23144531 .4149933 .2524414 .4149933 .35131837 .36099244 .4482422 .23599243 .4482422 .11999512 .4482422 .027999878 .34532167 .027999878 .22042847 .027999878 .08631897 .1329956-.0107421879 .24798584-.0107421879 .36999513-.0107421879 .4149933 .10032654 .4149933 .11933899M.34899903 .2524414H.11199951C.117996219 .40126039 .20199585 .426239 .23599243 .426239 .33898927 .426239 .34899903 .2913971 .34899903 .2524414Z"/>
<path id="font_2_4" d="M.2899933 .35191346C.37199403 .37893678 .42999269 .4490509 .42999269 .52809146 .42999269 .6100464 .34199525 .6660156 .24598694 .6660156 .14498902 .6660156 .068984989 .60606387 .068984989 .53009036 .068984989 .49710084 .09098816 .47808839 .11999512 .47808839 .15098572 .47808839 .17098999 .50009158 .17098999 .5290985 .17098999 .57910159 .12399292 .57910159 .10899353 .57910159 .13999939 .62802127 .20599365 .64100649 .24198914 .64100649 .2829895 .64100649 .33799745 .6190338 .33799745 .5290985 .33799745 .51708987 .33599855 .45906068 .30999757 .4149933 .27999879 .36691285 .24598694 .36390687 .22099304 .36291505 .21299744 .36190797 .18899536 .35990907 .18199158 .35990907 .17399597 .35890199 .16699219 .35791017 .16699219 .3479004 .16699219 .33691407 .17399597 .33691407 .19099427 .33691407H.23498535C.31698609 .33691407 .35398866 .2686615 .35398866 .17037964 .35398866 .034469606 .2849884 .0055389406 .24099732 .0055389406 .19799805 .0055389406 .12298584 .022491456 .08799744 .08137512 .12298584 .07637024 .1539917 .09837341 .1539917 .1363678 .1539917 .17237854 .1269989 .19238281 .09799194 .19238281 .07398987 .19238281 .041992189 .17837525 .041992189 .1343689 .041992189 .043441774 .1349945-.022460938 .24398804-.022460938 .3659973-.022460938 .45700074 .06838989 .45700074 .17037964 .45700074 .252594 .3939972 .33088685 .2899933 .35191346Z"/>
</defs>
<path transform="matrix(1.00006,0,0,-1,75.510448,92.03)" stroke-width=".3985" stroke-linecap="butt" stroke-miterlimit="10" stroke-linejoin="miter" fill="none" stroke="#000000" d="M-74.41055 0H78.37126"/>
<path transform="matrix(1.00006,0,0,-1,153.88642,92.03)" d="M1.99252 0-1.19551 1.59401 0 0-1.19551-1.59401"/>
<use data-text="x" xlink:href="#font_1_5" transform="matrix(9.963197,0,0,-9.9626,159.39948,94.175)"/>
<path transform="matrix(1.00006,0,0,-1,75.510448,92.03)" stroke-width=".3985" stroke-linecap="butt" stroke-miterlimit="10" stroke-linejoin="miter" fill="none" stroke="#000000" d="M0-74.41055V78.37126"/>
<path transform="matrix(0,-1,-1.00006,-0,75.510448,13.658737)" d="M1.99252 0-1.19551 1.59401 0 0-1.19551-1.59401"/>
<use data-text="y" xlink:href="#font_1_6" transform="matrix(9.963197,0,0,-9.9626,72.88929,6.2089998)"/>
<path transform="matrix(1.00006,0,0,-1,75.510448,92.03)" d="M0 0C0 0 .21512 .00392 .29791 .00905 .38068 .01419 .51422 .02676 .59674 .0372 .67926 .04765 .81096 .06885 .89288 .08446 .9748 .10007 1.10626 .12906 1.18715 .14984 1.26805 .17062 1.3964 .20834 1.476 .23431 1.55563 .26027 1.68271 .30583 1.76122 .33694 1.83972 .36807 1.96489 .4225 2.04189 .45866 2.1189 .49484 2.24113 .55667 2.31621 .59764 2.39131 .6386 2.5102 .708 2.58327 .75388 2.65634 .79976 2.77238 .87762 2.84306 .92827 2.91374 .97894 3.02481 1.0637 3.09283 1.11902 3.16086 1.17435 3.26816 1.26718 3.33354 1.32704 3.39893 1.3869 3.50175 1.48622 3.56427 1.55049 3.62677 1.61475 3.72475 1.72163 3.7841 1.7903 3.84344 1.85896 3.93626 1.9727 3.99208 2.04553 4.04788 2.11836 4.13431 2.23857 4.18646 2.31532 4.23863 2.39207 4.31953 2.51808 4.36815 2.59871 4.41678 2.67935 4.4925 2.81223 4.53708 2.89664 4.58168 2.98103 4.64937 3.11934 4.68968 3.20729 4.73001 3.29523 4.79175 3.4394 4.82776 3.53065 4.86377 3.62187 4.91798 3.77055 4.94945 3.86493 4.98094 3.95929 5.02802 4.11359 5.05484 4.21098 5.08165 4.30838 5.12091 4.4669 5.14294 4.56706 5.16498 4.66724 5.19669 4.8304 5.21379 4.9331 5.2309 5.03581 5.25453 5.2024 5.2665 5.30736 5.27847 5.41232 5.29341 5.58264 5.30008 5.68974 5.30676 5.79686 5.31339 5.97046 5.31464 6.07945 5.31589 6.18843 5.31332 6.36482 5.30917 6.47548 5.30502 6.5861 5.29424 6.76492 5.28465 6.87694 5.27509 6.98897 5.25548 7.1697 5.24013 7.28299 5.22478 7.39629 5.19485 7.57924 5.17381 7.69353 5.15279 7.80782 5.11528 7.99202 5.08846 8.10683 5.06165 8.22163 5.01324 8.40599 4.98036 8.52106 4.94748 8.6361 4.89005 8.82085 4.85138 8.93616 4.81273 9.05147 4.7461 9.23685 4.70149 9.35216 4.6569 9.46747 4.58047 9.65236 4.52982 9.76727 4.47916 9.8822 4.39305 10.06627 4.33635 10.18056 4.27965 10.29485 4.18385 10.4777 4.12108 10.59111 4.05833 10.70451 3.95265 10.88576 3.88399 10.99805 3.8153 11.11032 3.70074 11.28969 3.62602 11.40045 3.55133 11.51123 3.42612 11.68735 3.34535 11.79646 3.26459 11.9056 3.13039 12.07996 3.04381 12.18707 2.95721 12.29417 2.81381 12.46371 2.72133 12.56856 2.62886 12.6734 2.47536 12.84036 2.37706 12.94281 2.27876 13.04526 2.11691 13.20737 2.01285 13.30702 1.90877 13.4067 1.73666 13.56465 1.62679 13.6613 1.51689 13.75793 1.3362 13.91048 1.22078 14.00372 1.10533 14.09697 .91573 14.24376 .79477 14.33347 .6738 14.42317 .47502 14.5644 .34875 14.65047 .2225 14.73653 .01608 14.8718-.11533 14.95384-.24677 15.03589-.46182 15.1642-.59857 15.2418-.73529 15.31941-.95909 15.44043-1.10086 15.51338-1.24263 15.58632-1.47388 15.69955-1.62044 15.76773-1.767 15.83588-2.00604 15.94142-2.15726 16.00479-2.30849 16.06816-2.55466 16.16638-2.71042 16.2246-2.86618 16.28279-3.11978 16.37177-3.27994 16.42444-3.44011 16.47711-3.70074 16.5573-3.86493 16.6043-4.02911 16.65128-4.2954 16.72244-4.4635 16.76324-4.63162 16.80405-4.90463 16.86368-5.07664 16.89857-5.24866 16.93346-5.52795 16.98598-5.70338 17.01483-5.87881 17.0437-6.16245 17.08443-6.34105 17.1066-6.51962 17.12874-6.80879 17.1591-6.9905 17.17471-7.17221 17.19032-7.46637 17.2104-7.65086 17.21922-7.83536 17.22803-8.1333 17.23656-8.32031 17.23831-8.50732 17.24007-8.80954 17.2372-8.99883 17.23192-9.1881 17.22665-9.49321 17.21262-9.68463 17.20016-9.87604 17.18771-10.18529 17.16191-10.3786 17.14203-10.57188 17.12213-10.8834 17.08395-11.07799 17.05663-11.27257 17.02931-11.58548 16.98004-11.78105 16.94489-11.97662 16.90974-12.29126 16.84631-12.48773 16.8032-12.68419 16.76012-12.99977 16.68494-13.19711 16.63428-13.39447 16.5836-13.71243 16.49638-13.91019 16.43808-14.10791 16.37975-14.4247 16.27997-14.6223 16.21371-14.81993 16.14743-15.1372 16.0349-15.33444 15.9603-15.53168 15.88568-15.84737 15.75862-16.04384 15.67596-16.2403 15.59332-16.55484 15.45502-16.75053 15.36443-16.94623 15.27382-17.25989 15.12167-17.45448 15.02286-17.64905 14.92406-17.96005 14.75914-18.15302 14.65228-18.34595 14.54544-18.65413 14.36766-18.84515 14.2526-19.03618 14.13754-19.34114 13.94606-19.53001 13.82295-19.71892 13.69986-20.02048 13.49634-20.20673 13.36516-20.39297 13.23398-20.68929 13.01666-20.87254 12.8774-21.05579 12.73814-21.34724 12.50867-21.52747 12.36147-21.70767 12.21426-21.99481 11.97159-22.17146 11.81647-22.34813 11.66133-22.62816 11.40639-22.80092 11.24332-22.9737 11.08026-23.24815 10.81197-23.41676 10.64107-23.58539 10.47018-23.8521 10.19008-24.01628 10.01163-24.18045 9.83316-24.44055 9.54074-24.60034 9.35487-24.7601 9.169-25.01355 8.86525-25.16805 8.67183-25.32253 8.4784-25.56523 8.16145-25.71394 7.96059-25.86264 7.75972-26.09671 7.43172-26.23987 7.22392-26.38301 7.01613-26.60846 6.67747-26.74583 6.46277-26.8832 6.24803-27.09892 5.8977-27.22997 5.67615-27.36101 5.4546-27.56622 5.09401-27.69048 4.86592-27.81471 4.63782-28.00824 4.2667-28.12556 4.03204-28.24287 3.7974-28.42601 3.41544-28.53615 3.17459-28.64629 2.93376-28.8165 2.54298-28.91946 2.29623-29.02242 2.0495-29.18286 1.6485-29.27826 1.39607-29.37366 1.14363-29.52002 .73454-29.60707 .47684-29.69414 .21915-29.82715-.1984-29.90591-.46138-29.98468-.72438-30.10449-1.15063-30.17477-1.4188-30.24507-1.68695-30.35114-2.12138-30.41275-2.39433-30.47437-2.66728-30.56613-3.10896-30.61896-3.38622-30.67175-3.66348-30.74965-4.11125-30.79335-4.39267-30.83705-4.67409-30.89989-5.12921-30.93413-5.41452-30.96838-5.69984-31.01573-6.16042-31.0404-6.44913-31.06508-6.73785-31.0972-7.20366-31.11218-7.49554-31.12715-7.78741-31.14336-8.25795-31.14851-8.55284-31.15366-8.84773-31.15431-9.32349-31.1494-9.62102-31.14449-9.91855-31.12843-10.39796-31.11308-10.69739-31.0977-10.9968-31.06429-11.47815-31.03859-11.77924-31.0129-12.0803-30.96394-12.5647-30.92778-12.8674-30.89162-13.1701-30.82475-13.65718-30.77791-13.96103-30.73103-14.2649-30.64711-14.75269-30.5899-15.0574-30.53268-15.36212-30.43369-15.8523-30.36554-16.15738-30.29736-16.4625-30.17789-16.95163-30.09848-17.25647-30.01909-17.56133-29.88348-18.05031-29.79326-18.35463-29.70303-18.65898-29.54941-19.14648-29.44809-19.45009-29.34676-19.7537-29.17485-20.24023-29.06296-20.54282-28.95107-20.8454-28.76447-21.33005-28.6415-21.631-28.51852-21.93195-28.31105-22.4131-28.17645-22.71191-28.04187-23.01073-27.81696-23.48825-27.6714-23.78467-27.52586-24.08109-27.28384-24.55481-27.12733-24.84833-26.9708-25.14183-26.71075-25.60968-26.54327-25.90016-26.37581-26.19064-26.09848-26.65517-25.92014-26.942-25.74182-27.22885-25.44725-27.68484-25.25798-27.96751-25.0687-28.25017-24.75618-28.70103-24.55582-28.97942-24.35548-29.2578-24.02481-29.70058-23.81372-29.97404-23.60263-30.24751-23.25581-30.68205-23.03438-30.95047-22.81296-31.2189-22.44978-31.64589-22.21779-31.90878-21.9858-32.17168-21.60458-32.5887-21.36214-32.84528-21.11966-33.10185-20.72284-33.508-20.47017-33.75816-20.21748-34.0083-19.80368-34.40483-19.54092-34.6483-19.27814-34.89175-18.84886-35.27686-18.5763-35.51303-18.30373-35.7492-17.8585-36.12192-17.5762-36.35052-17.2939-36.57915-16.83345-36.9401-16.5416-37.16077-16.24976-37.38142-15.77347-37.72867-15.47252-37.94102-15.17157-38.15338-14.6824-38.4878-14.37251-38.69131-14.0626-38.89484-13.55774-39.21341-13.2389-39.40797-12.92007-39.60255-12.40172-39.90825-12.07443-40.09378-11.74715-40.2793-11.21542-40.56949-10.87996-40.74504-10.5445-40.9206-9.99986-41.19386-9.65646-41.35905-9.31306-41.52428-8.75575-41.781-8.40477-41.93587-8.0538-42.09073-7.48503-42.33112-7.12675-42.47542-6.76846-42.6197-6.18773-42.84245-5.8224-42.97589-5.45705-43.10934-4.8655-43.31548-4.49348-43.43733-4.12146-43.55917-3.5192-43.74437-3.14098-43.85426-2.76277-43.96414-2.1516-44.13098-1.76761-44.2294-1.38362-44.32782-.76259-44.47736-.3733-44.56367 .01596-44.65 .64362-44.77777 1.0382-44.85161 1.43279-44.92545 2.071-45.03473 2.47063-45.09595 2.87027-45.15718 3.51476-45.24503 3.91853-45.29306 4.32231-45.34106 4.97327-45.40686 5.38095-45.442 5.78862-45.47717 6.44576-45.52444 6.85696-45.54648 7.26817-45.5685 7.93031-45.59244 8.34483-45.601 8.75932-45.60954 9.42744-45.61316 9.84445-45.60825 10.26149-45.60333 10.93144-45.58458 11.3505-45.56557 11.76953-45.54654 12.4439-45.50423 12.8647-45.4711 13.28549-45.43796 13.96126-45.37354 14.38342-45.32666 14.80559-45.2798 15.48451-45.19403 15.9076-45.13318 16.33064-45.07233 17.00938-44.96313 17.4327-44.88794 17.856-44.81271 18.53561-44.68062 18.95868-44.59091 19.38174-44.5012 20.05966-44.34555 20.48193-44.24121 20.90424-44.13689 21.58145-43.95764 22.0025-43.8388 22.42355-43.71999 23.09715-43.5176 23.5167-43.38466 23.93623-43.25172 24.6087-43.02774 25.02632-42.88054 25.44395-42.73334 26.11214-42.48576 26.5269-42.32372 26.94165-42.16167 27.60419-41.88919 28.01566-41.7124 28.42712-41.5356 29.08469-41.24023 29.49261-41.04933 29.90054-40.85843 30.55215-40.54167 30.95593-40.33627 31.35971-40.13087 32.00365-39.78839 32.40291-39.56876 32.80215-39.3491 33.43945-38.98671 33.83353-38.75305 34.2276-38.51941 34.8551-38.13272 35.24327-37.8847 35.63144-37.63669 36.24924-37.22758 36.63121-36.96545 37.01318-36.70332 37.62099-36.27135 37.99641-35.99538 38.37184-35.71938 38.96861-35.2656 39.3371-34.97621 39.70561-34.68686 40.29146-34.21252 40.65237-33.90984 41.01332-33.60712 41.58598-33.11069 41.93858-32.79439 42.29118-32.47809 42.84999-31.95935 43.19391-31.62993 43.53783-31.3005 44.08258-30.76207 44.41743-30.42003 44.75229-30.07799 45.28194-29.51935 45.60735-29.1647 45.93275-28.81006 46.44731-28.23106 46.76276-27.86397 47.07819-27.49687 47.57607-26.89806 47.8809-26.51872 48.18575-26.1394 48.66624-25.52094 48.96-25.1299 49.25377-24.73886 49.71568-24.10255 49.9982-23.70016 50.28073-23.29776 50.72566-22.64319 50.99648-22.22957 51.2673-21.81596 51.69164-21.14325 51.95021-20.71904 52.2088-20.29483 52.61438-19.60669 52.86037-19.17215 53.10638-18.73763 53.49052-18.03198 53.72328-17.58711 53.95605-17.14224 54.31863-16.42029 54.53806-15.96571 54.75748-15.51115 55.09903-14.77437 55.30469-14.31073 55.51035-13.84709 55.82878-13.09633 56.02046-12.624 56.21213-12.15163 56.50923-11.38698 56.68626-10.90633 56.86333-10.42567 57.13475-9.64844 57.29666-9.15959 57.45859-8.67075 57.70667-7.8793 57.85349-7.38287 58.00032-6.88646 58.22333-6.0849 58.35489-5.58168 58.48645-5.07846 58.68585-4.2657 58.80176-3.75594 58.91768-3.24617 59.09062-2.4233 59.19054-1.90746 59.29047-1.39163 59.52208-.03813 59.52208-.03813L0 0Z" fill="#deffde"/>
<path transform="matrix(1.00006,0,0,-1,75.510448,92.03)" stroke-width=".79701" stroke-linecap="butt" stroke-miterlimit="10" stroke-linejoin="miter" fill="none" stroke="#007300" d="M0 0C0 0 .21512 .00392 .29791 .00905 .38068 .01419 .51422 .02676 .59674 .0372 .67926 .04765 .81096 .06885 .89288 .08446 .9748 .10007 1.10626 .12906 1.18715 .14984 1.26805 .17062 1.3964 .20834 1.476 .23431 1.55563 .26027 1.68271 .30583 1.76122 .33694 1.83972 .36807 1.96489 .4225 2.04189 .45866 2.1189 .49484 2.24113 .55667 2.31621 .59764 2.39131 .6386 2.5102 .708 2.58327 .75388 2.65634 .79976 2.77238 .87762 2.84306 .92827 2.91374 .97894 3.02481 1.0637 3.09283 1.11902 3.16086 1.17435 3.26816 1.26718 3.33354 1.32704 3.39893 1.3869 3.50175 1.48622 3.56427 1.55049 3.62677 1.61475 3.72475 1.72163 3.7841 1.7903 3.84344 1.85896 3.93626 1.9727 3.99208 2.04553 4.04788 2.11836 4.13431 2.23857 4.18646 2.31532 4.23863 2.39207 4.31953 2.51808 4.36815 2.59871 4.41678 2.67935 4.4925 2.81223 4.53708 2.89664 4.58168 2.98103 4.64937 3.11934 4.68968 3.20729 4.73001 3.29523 4.79175 3.4394 4.82776 3.53065 4.86377 3.62187 4.91798 3.77055 4.94945 3.86493 4.98094 3.95929 5.02802 4.11359 5.05484 4.21098 5.08165 4.30838 5.12091 4.4669 5.14294 4.56706 5.16498 4.66724 5.19669 4.8304 5.21379 4.9331 5.2309 5.03581 5.25453 5.2024 5.2665 5.30736 5.27847 5.41232 5.29341 5.58264 5.30008 5.68974 5.30676 5.79686 5.31339 5.97046 5.31464 6.07945 5.31589 6.18843 5.31332 6.36482 5.30917 6.47548 5.30502 6.5861 5.29424 6.76492 5.28465 6.87694 5.27509 6.98897 5.25548 7.1697 5.24013 7.28299 5.22478 7.39629 5.19485 7.57924 5.17381 7.69353 5.15279 7.80782 5.11528 7.99202 5.08846 8.10683 5.06165 8.22163 5.01324 8.40599 4.98036 8.52106 4.94748 8.6361 4.89005 8.82085 4.85138 8.93616 4.81273 9.05147 4.7461 9.23685 4.70149 9.35216 4.6569 9.46747 4.58047 9.65236 4.52982 9.76727 4.47916 9.8822 4.39305 10.06627 4.33635 10.18056 4.27965 10.29485 4.18385 10.4777 4.12108 10.59111 4.05833 10.70451 3.95265 10.88576 3.88399 10.99805 3.8153 11.11032 3.70074 11.28969 3.62602 11.40045 3.55133 11.51123 3.42612 11.68735 3.34535 11.79646 3.26459 11.9056 3.13039 12.07996 3.04381 12.18707 2.95721 12.29417 2.81381 12.46371 2.72133 12.56856 2.62886 12.6734 2.47536 12.84036 2.37706 12.94281 2.27876 13.04526 2.11691 13.20737 2.01285 13.30702 1.90877 13.4067 1.73666 13.56465 1.62679 13.6613 1.51689 13.75793 1.3362 13.91048 1.22078 14.00372 1.10533 14.09697 .91573 14.24376 .79477 14.33347 .6738 14.42317 .47502 14.5644 .34875 14.65047 .2225 14.73653 .01608 14.8718-.11533 14.95384-.24677 15.03589-.46182 15.1642-.59857 15.2418-.73529 15.31941-.95909 15.44043-1.10086 15.51338-1.24263 15.58632-1.47388 15.69955-1.62044 15.76773-1.767 15.83588-2.00604 15.94142-2.15726 16.00479-2.30849 16.06816-2.55466 16.16638-2.71042 16.2246-2.86618 16.28279-3.11978 16.37177-3.27994 16.42444-3.44011 16.47711-3.70074 16.5573-3.86493 16.6043-4.02911 16.65128-4.2954 16.72244-4.4635 16.76324-4.63162 16.80405-4.90463 16.86368-5.07664 16.89857-5.24866 16.93346-5.52795 16.98598-5.70338 17.01483-5.87881 17.0437-6.16245 17.08443-6.34105 17.1066-6.51962 17.12874-6.80879 17.1591-6.9905 17.17471-7.17221 17.19032-7.46637 17.2104-7.65086 17.21922-7.83536 17.22803-8.1333 17.23656-8.32031 17.23831-8.50732 17.24007-8.80954 17.2372-8.99883 17.23192-9.1881 17.22665-9.49321 17.21262-9.68463 17.20016-9.87604 17.18771-10.18529 17.16191-10.3786 17.14203-10.57188 17.12213-10.8834 17.08395-11.07799 17.05663-11.27257 17.02931-11.58548 16.98004-11.78105 16.94489-11.97662 16.90974-12.29126 16.84631-12.48773 16.8032-12.68419 16.76012-12.99977 16.68494-13.19711 16.63428-13.39447 16.5836-13.71243 16.49638-13.91019 16.43808-14.10791 16.37975-14.4247 16.27997-14.6223 16.21371-14.81993 16.14743-15.1372 16.0349-15.33444 15.9603-15.53168 15.88568-15.84737 15.75862-16.04384 15.67596-16.2403 15.59332-16.55484 15.45502-16.75053 15.36443-16.94623 15.27382-17.25989 15.12167-17.45448 15.02286-17.64905 14.92406-17.96005 14.75914-18.15302 14.65228-18.34595 14.54544-18.65413 14.36766-18.84515 14.2526-19.03618 14.13754-19.34114 13.94606-19.53001 13.82295-19.71892 13.69986-20.02048 13.49634-20.20673 13.36516-20.39297 13.23398-20.68929 13.01666-20.87254 12.8774-21.05579 12.73814-21.34724 12.50867-21.52747 12.36147-21.70767 12.21426-21.99481 11.97159-22.17146 11.81647-22.34813 11.66133-22.62816 11.40639-22.80092 11.24332-22.9737 11.08026-23.24815 10.81197-23.41676 10.64107-23.58539 10.47018-23.8521 10.19008-24.01628 10.01163-24.18045 9.83316-24.44055 9.54074-24.60034 9.35487-24.7601 9.169-25.01355 8.86525-25.16805 8.67183-25.32253 8.4784-25.56523 8.16145-25.71394 7.96059-25.86264 7.75972-26.09671 7.43172-26.23987 7.22392-26.38301 7.01613-26.60846 6.67747-26.74583 6.46277-26.8832 6.24803-27.09892 5.8977-27.22997 5.67615-27.36101 5.4546-27.56622 5.09401-27.69048 4.86592-27.81471 4.63782-28.00824 4.2667-28.12556 4.03204-28.24287 3.7974-28.42601 3.41544-28.53615 3.17459-28.64629 2.93376-28.8165 2.54298-28.91946 2.29623-29.02242 2.0495-29.18286 1.6485-29.27826 1.39607-29.37366 1.14363-29.52002 .73454-29.60707 .47684-29.69414 .21915-29.82715-.1984-29.90591-.46138-29.98468-.72438-30.10449-1.15063-30.17477-1.4188-30.24507-1.68695-30.35114-2.12138-30.41275-2.39433-30.47437-2.66728-30.56613-3.10896-30.61896-3.38622-30.67175-3.66348-30.74965-4.11125-30.79335-4.39267-30.83705-4.67409-30.89989-5.12921-30.93413-5.41452-30.96838-5.69984-31.01573-6.16042-31.0404-6.44913-31.06508-6.73785-31.0972-7.20366-31.11218-7.49554-31.12715-7.78741-31.14336-8.25795-31.14851-8.55284-31.15366-8.84773-31.15431-9.32349-31.1494-9.62102-31.14449-9.91855-31.12843-10.39796-31.11308-10.69739-31.0977-10.9968-31.06429-11.47815-31.03859-11.77924-31.0129-12.0803-30.96394-12.5647-30.92778-12.8674-30.89162-13.1701-30.82475-13.65718-30.77791-13.96103-30.73103-14.2649-30.64711-14.75269-30.5899-15.0574-30.53268-15.36212-30.43369-15.8523-30.36554-16.15738-30.29736-16.4625-30.17789-16.95163-30.09848-17.25647-30.01909-17.56133-29.88348-18.05031-29.79326-18.35463-29.70303-18.65898-29.54941-19.14648-29.44809-19.45009-29.34676-19.7537-29.17485-20.24023-29.06296-20.54282-28.95107-20.8454-28.76447-21.33005-28.6415-21.631-28.51852-21.93195-28.31105-22.4131-28.17645-22.71191-28.04187-23.01073-27.81696-23.48825-27.6714-23.78467-27.52586-24.08109-27.28384-24.55481-27.12733-24.84833-26.9708-25.14183-26.71075-25.60968-26.54327-25.90016-26.37581-26.19064-26.09848-26.65517-25.92014-26.942-25.74182-27.22885-25.44725-27.68484-25.25798-27.96751-25.0687-28.25017-24.75618-28.70103-24.55582-28.97942-24.35548-29.2578-24.02481-29.70058-23.81372-29.97404-23.60263-30.24751-23.25581-30.68205-23.03438-30.95047-22.81296-31.2189-22.44978-31.64589-22.21779-31.90878-21.9858-32.17168-21.60458-32.5887-21.36214-32.84528-21.11966-33.10185-20.72284-33.508-20.47017-33.75816-20.21748-34.0083-19.80368-34.40483-19.54092-34.6483-19.27814-34.89175-18.84886-35.27686-18.5763-35.51303-18.30373-35.7492-17.8585-36.12192-17.5762-36.35052-17.2939-36.57915-16.83345-36.9401-16.5416-37.16077-16.24976-37.38142-15.77347-37.72867-15.47252-37.94102-15.17157-38.15338-14.6824-38.4878-14.37251-38.69131-14.0626-38.89484-13.55774-39.21341-13.2389-39.40797-12.92007-39.60255-12.40172-39.90825-12.07443-40.09378-11.74715-40.2793-11.21542-40.56949-10.87996-40.74504-10.5445-40.9206-9.99986-41.19386-9.65646-41.35905-9.31306-41.52428-8.75575-41.781-8.40477-41.93587-8.0538-42.09073-7.48503-42.33112-7.12675-42.47542-6.76846-42.6197-6.18773-42.84245-5.8224-42.97589-5.45705-43.10934-4.8655-43.31548-4.49348-43.43733-4.12146-43.55917-3.5192-43.74437-3.14098-43.85426-2.76277-43.96414-2.1516-44.13098-1.76761-44.2294-1.38362-44.32782-.76259-44.47736-.3733-44.56367 .01596-44.65 .64362-44.77777 1.0382-44.85161 1.43279-44.92545 2.071-45.03473 2.47063-45.09595 2.87027-45.15718 3.51476-45.24503 3.91853-45.29306 4.32231-45.34106 4.97327-45.40686 5.38095-45.442 5.78862-45.47717 6.44576-45.52444 6.85696-45.54648 7.26817-45.5685 7.93031-45.59244 8.34483-45.601 8.75932-45.60954 9.42744-45.61316 9.84445-45.60825 10.26149-45.60333 10.93144-45.58458 11.3505-45.56557 11.76953-45.54654 12.4439-45.50423 12.8647-45.4711 13.28549-45.43796 13.96126-45.37354 14.38342-45.32666 14.80559-45.2798 15.48451-45.19403 15.9076-45.13318 16.33064-45.07233 17.00938-44.96313 17.4327-44.88794 17.856-44.81271 18.53561-44.68062 18.95868-44.59091 19.38174-44.5012 20.05966-44.34555 20.48193-44.24121 20.90424-44.13689 21.58145-43.95764 22.0025-43.8388 22.42355-43.71999 23.09715-43.5176 23.5167-43.38466 23.93623-43.25172 24.6087-43.02774 25.02632-42.88054 25.44395-42.73334 26.11214-42.48576 26.5269-42.32372 26.94165-42.16167 27.60419-41.88919 28.01566-41.7124 28.42712-41.5356 29.08469-41.24023 29.49261-41.04933 29.90054-40.85843 30.55215-40.54167 30.95593-40.33627 31.35971-40.13087 32.00365-39.78839 32.40291-39.56876 32.80215-39.3491 33.43945-38.98671 33.83353-38.75305 34.2276-38.51941 34.8551-38.13272 35.24327-37.8847 35.63144-37.63669 36.24924-37.22758 36.63121-36.96545 37.01318-36.70332 37.62099-36.27135 37.99641-35.99538 38.37184-35.71938 38.96861-35.2656 39.3371-34.97621 39.70561-34.68686 40.29146-34.21252 40.65237-33.90984 41.01332-33.60712 41.58598-33.11069 41.93858-32.79439 42.29118-32.47809 42.84999-31.95935 43.19391-31.62993 43.53783-31.3005 44.08258-30.76207 44.41743-30.42003 44.75229-30.07799 45.28194-29.51935 45.60735-29.1647 45.93275-28.81006 46.44731-28.23106 46.76276-27.86397 47.07819-27.49687 47.57607-26.89806 47.8809-26.51872 48.18575-26.1394 48.66624-25.52094 48.96-25.1299 49.25377-24.73886 49.71568-24.10255 49.9982-23.70016 50.28073-23.29776 50.72566-22.64319 50.99648-22.22957 51.2673-21.81596 51.69164-21.14325 51.95021-20.71904 52.2088-20.29483 52.61438-19.60669 52.86037-19.17215 53.10638-18.73763 53.49052-18.03198 53.72328-17.58711 53.95605-17.14224 54.31863-16.42029 54.53806-15.96571 54.75748-15.51115 55.09903-14.77437 55.30469-14.31073 55.51035-13.84709 55.82878-13.09633 56.02046-12.624 56.21213-12.15163 56.50923-11.38698 56.68626-10.90633 56.86333-10.42567 57.13475-9.64844 57.29666-9.15959 57.45859-8.67075 57.70667-7.8793 57.85349-7.38287 58.00032-6.88646 58.22333-6.0849 58.35489-5.58168 58.48645-5.07846 58.68585-4.2657 58.80176-3.75594 58.91768-3.24617 59.09062-2.4233 59.19054-1.90746 59.29047-1.39163 59.52208-.03813 59.52208-.03813"/>
<use data-text="r" xlink:href="#font_1_4" transform="matrix(9.963197,0,0,-9.9626,61.059579,142.144)" fill="#007300"/>
<use data-text="=" xlink:href="#font_2_5" transform="matrix(9.963197,0,0,-9.9626,68.59803,142.144)" fill="#007300"/>
<use data-text="&#x03b8;" xlink:href="#font_1_1" transform="matrix(9.963197,0,0,-9.9626,79.11466,142.144)" fill="#007300"/>
<use data-text="/" xlink:href="#font_1_3" transform="matrix(9.963197,0,0,-9.9626,84.056407,142.144)" fill="#007300"/>
<use data-text="(" xlink:href="#font_2_1" transform="matrix(9.963197,0,0,-9.9626,89.050258,142.144)" fill="#007300"/>
<use data-text="2" xlink:href="#font_2_3" transform="matrix(9.963197,0,0,-9.9626,92.91598,142.144)" fill="#007300"/>
<use data-text="&#x03c0;" xlink:href="#font_1_2" transform="matrix(9.963197,0,0,-9.9626,97.90679,142.144)" fill="#007300"/>
<use data-text=")" xlink:href="#font_2_2" transform="matrix(9.963197,0,0,-9.9626,103.944149,142.144)" fill="#007300"/>
<use data-text="a" xlink:href="#font_3_28" transform="matrix(9.963197,0,0,-9.9626,51.447008,180.837)"/>
<use data-text="r" xlink:href="#font_3_96" transform="matrix(9.963197,0,0,-9.9626,56.428606,180.837)"/>
<use data-text="e" xlink:href="#font_3_50" transform="matrix(9.963197,0,0,-9.9626,60.334169,180.837)"/>
<use data-text="a" xlink:href="#font_3_28" transform="matrix(9.963197,0,0,-9.9626,64.75783,180.837)"/>
<use data-text="=" xlink:href="#font_2_5" transform="matrix(9.963197,0,0,-9.9626,73.056308,180.837)"/>
<use data-text="&#x03c0;" xlink:href="#font_1_2" transform="matrix(9.963197,0,0,-9.9626,83.57393,180.837)"/>
<use data-text="/" xlink:href="#font_1_3" transform="matrix(9.963197,0,0,-9.9626,89.60167,180.837)"/>
<use data-text="3" xlink:href="#font_2_4" transform="matrix(9.963197,0,0,-9.9626,94.59158,180.837)"/>
</svg>
