<svg xmlns="http://www.w3.org/2000/svg" xmlns:xlink="http://www.w3.org/1999/xlink" xmlns:inkscape="http://www.inkscape.org/namespaces/inkscape" version="1.1" width="249" height="92" viewBox="0 0 249 92">
<defs>
<path id="font_1_3" d="M.34999085 .056259157C.36099244 .015258789 .3959961-.0107421879 .43899537-.0107421879 .47399903-.0107421879 .49699403 .012252808 .5130005 .044265748 .5299988 .08027649 .54299929 .14129639 .54299929 .14329529 .54299929 .1532898 .5339966 .1532898 .5309906 .1532898 .5209961 .1532898 .519989 .14929199 .5169983 .13528443 .5029907 .07926941 .48399354 .011245728 .44198609 .011245728 .42099 .011245728 .41099549 .024261475 .41099549 .057266237 .41099549 .07926941 .4229889 .12628174 .43099977 .16130066L.45899964 .2693329C.46199037 .28433229 .47200013 .32234193 .47599793 .3373413 .48098756 .36035157 .4909973 .3983612 .4909973 .40437318 .4909973 .42237855 .47698976 .43138124 .46199037 .43138124 .45700074 .43138124 .43099977 .43037416 .4229889 .3963623 .4039917 .323349 .3600006 .14828491 .34799195 .09527588 .34700013 .091278079 .30699159 .011245728 .23399353 .011245728 .18199158 .011245728 .17199707 .056259157 .17199707 .09327698 .17199707 .14929199 .19999695 .22831726 .22599793 .29733277 .23799134 .3273468 .24299622 .34135438 .24299622 .36035157 .24299622 .405365 .21099854 .4423828 .16099549 .4423828 .06599426 .4423828 .0289917 .29733277 .0289917 .28833009 .0289917 .27833558 .038986207 .27833558 .040985109 .27833558 .050994874 .27833558 .051986696 .28033448 .056991579 .29634095 .08198547 .38336183 .11999512 .42037965 .1579895 .42037965 .16699219 .42037965 .18299866 .41937257 .18299866 .38735963 .18299866 .36335755 .17199707 .3343506 .1659851 .31933595 .1289978 .2203064 .10798645 .15829468 .10798645 .10928345 .10798645 .014251709 .1769867-.0107421879 .23098755-.0107421879 .29699708-.0107421879 .33299256 .03425598 .34999085 .056259157Z"/>
<path id="font_1_4" d="M.46798707 .37236024C.46798707 .42637635 .44198609 .4423828 .42399598 .4423828 .39898683 .4423828 .375 .41636659 .375 .3943634 .375 .38136292 .37998963 .3753662 .3909912 .36434938 .4119873 .3443451 .4249878 .31834413 .4249878 .28233338 .4249878 .24032593 .3639984 .011245728 .24699402 .011245728 .19599915 .011245728 .17298889 .04626465 .17298889 .09828186 .17298889 .15429688 .19999695 .22731018 .23098755 .31033326 .23799134 .3273468 .24299622 .34135438 .24299622 .36035157 .24299622 .405365 .21099854 .4423828 .16099549 .4423828 .066986087 .4423828 .0289917 .29733277 .0289917 .28833009 .0289917 .27833558 .038986207 .27833558 .040985109 .27833558 .050994874 .27833558 .051986696 .28033448 .056991579 .29634095 .085998538 .39736939 .1289978 .42037965 .1579895 .42037965 .1659851 .42037965 .18299866 .42037965 .18299866 .3883667 .18299866 .36335755 .17298889 .3363495 .1659851 .31834413 .12199402 .20230103 .10899353 .15629578 .10899353 .11328125 .10899353 .0052490236 .19699097-.0107421879 .24299622-.0107421879 .41099549-.0107421879 .46798707 .32034303 .46798707 .37236024Z"/>
<path id="font_2_84" d="M.5209961 .21636963C.5209961 .34336854 .42399598 .4423828 .31199647 .4423828 .23399353 .4423828 .19198609 .39837647 .17199707 .3763733V.4423828L.027999878 .43066407V.3996582C.09899902 .3996582 .10598755 .3936615 .10598755 .34973146V-.117996219C.10598755-.16308594 .09498596-.16308594 .027999878-.16308594V-.1940918L.13999939-.19110108 .25299073-.1940918V-.16308594C.18598938-.16308594 .1749878-.16308594 .1749878-.117996219V.050186159 .059173585C.17999268 .04319763 .22200012-.0107421879 .2979889-.0107421879 .4169922-.0107421879 .5209961 .087127689 .5209961 .21594239V.21636963M.43798829 .21594239C.43798829 .09512329 .36799623 .011245728 .2939911 .011245728 .2539978 .011245728 .21598816 .031219483 .18899536 .07215881 .1749878 .09312439 .1749878 .09411621 .1749878 .114089969V.33674623C.20399475 .38838197 .25299073 .41737367 .3039856 .41737367 .3769989 .41737367 .43798829 .32937623 .43798829 .21636963V.21594239Z"/>
<path id="font_2_28" d="M.48298646 .08912659V.14511109H.45799256V.08912659C.45799256 .03112793 .43299867 .025131226 .42199708 .025131226 .3889923 .025131226 .3849945 .070129398 .3849945 .07511902V.27508546C.3849945 .31707765 .3849945 .3560791 .34899903 .39312745 .30999757 .43223573 .2599945 .4482422 .21199036 .4482422 .12998963 .4482422 .06098938 .40115357 .06098938 .335083 .06098938 .30508424 .08099365 .28808595 .10699463 .28808595 .1349945 .28808595 .15299988 .30807496 .15299988 .33407594 .15299988 .3460846 .147995 .37908937 .101989749 .38008119 .1289978 .41519166 .17799378 .426239 .20999146 .426239 .25898744 .426239 .31599427 .38710023 .31599427 .29808045V.26107789C.2649994 .25808717 .19499207 .25508119 .13198853 .22509766 .056991579 .19110108 .03199768 .13911438 .03199768 .09512329 .03199768 .014251709 .1289978-.0107421879 .19198609-.0107421879 .2579956-.0107421879 .3039856 .029251099 .32299806 .07624817 .32699586 .036132814 .35398866-.005859375 .40098573-.005859375 .42199708-.005859375 .48298646 .008132935 .48298646 .08912659M.31599427 .14013672C.31599427 .04525757 .24398804 .011245728 .19898987 .011245728 .1499939 .011245728 .10899353 .04624939 .10899353 .09625244 .10899353 .15124512 .15098572 .23425293 .31599427 .24024964V.14013672Z"/>
<path id="font_2_96" d="M.3639984 .38137818C.3639984 .41337586 .33299256 .4423828 .2899933 .4423828 .21699524 .4423828 .18099976 .37538148 .16699219 .3323822V.4423828L.027999878 .43066407V.3996582C.09799194 .3996582 .10598755 .39266969 .10598755 .34370423V.07595825C.10598755 .0309906 .09498596 .0309906 .027999878 .0309906V0L.14199829 .0029907227C.18199158 .0029907227 .22898865 .0029907227 .2689972 0V.0309906H.24798584C.17399597 .0309906 .17199707 .04197693 .17199707 .07795715V.23181153C.17199707 .33137513 .21398926 .42037965 .2899933 .42037965 .29699708 .42037965 .29899598 .42037965 .30099488 .41937257 .2979889 .41838075 .27799989 .40637208 .27799989 .3803711 .27799989 .35237123 .29899598 .33737184 .32099916 .33737184 .33898927 .33737184 .3639984 .3493805 .3639984 .38137818Z"/>
<path id="font_2_75" d="M.8129883 0V.0309906C.7609863 .0309906 .73599246 .0309906 .7350006 .061019899V.25221253C.7350006 .3383026 .7350006 .36932374 .70399478 .405365 .6899872 .42237855 .6569977 .4423828 .598999 .4423828 .5149994 .4423828 .47099305 .38233949 .45399476 .34429933 .43998719 .43138124 .3659973 .4423828 .32099916 .4423828 .24798584 .4423828 .20098877 .39935304 .17298889 .33729554V.4423828L.03199768 .43066407V.3996582C.101989749 .3996582 .10998535 .39266969 .10998535 .34370423V.07595825C.10998535 .0309906 .09899902 .0309906 .03199768 .0309906V0L.14498902 .0029907227 .25698854 0V.0309906C.18998719 .0309906 .1789856 .0309906 .1789856 .07595825V.25978089C.1789856 .36431886 .25 .42037965 .31399537 .42037965 .3769989 .42037965 .3880005 .36631776 .3880005 .30926515V.076034549C.3880005 .0309906 .3769989 .0309906 .30999757 .0309906V0L.4229889 .0029907227 .5349884 0V.0309906C.46798707 .0309906 .45700074 .0309906 .45700074 .076034549V.2602234C.45700074 .36431886 .5279999 .42037965 .59199526 .42037965 .6549988 .42037965 .66600039 .36631776 .66600039 .30926515V.076034549C.66600039 .0309906 .6549988 .0309906 .58799746 .0309906V0L.70098879 .0029907227 .8129883 0Z"/>
<path id="font_2_50" d="M.4149933 .11933899C.4149933 .12934876 .40699769 .13134766 .4019928 .13134766 .3929901 .13134766 .3909912 .12535095 .3889923 .11734009 .35398866 .014251709 .2639923 .014251709 .2539978 .014251709 .20399475 .014251709 .1639862 .044281007 .14099121 .08131409 .11099243 .12934876 .11099243 .19540406 .11099243 .23144531H.3899994C.4119873 .23144531 .4149933 .23144531 .4149933 .2524414 .4149933 .35131837 .36099244 .4482422 .23599243 .4482422 .11999512 .4482422 .027999878 .34532167 .027999878 .22042847 .027999878 .08631897 .1329956-.0107421879 .24798584-.0107421879 .36999513-.0107421879 .4149933 .10032654 .4149933 .11933899M.34899903 .2524414H.11199951C.117996219 .40126039 .20199585 .426239 .23599243 .426239 .33898927 .426239 .34899903 .2913971 .34899903 .2524414Z"/>
<path id="font_2_105" d="M.33198548 .12385559V.18066406H.30699159V.12585449C.30699159 .052108766 .2769928 .014251709 .23999024 .014251709 .17298889 .014251709 .17298889 .10491943 .17298889 .12187195V.3996582H.31599427V.43066407H.17298889V.6142578H.147995C.14698792 .5324249 .116989139 .42565919 .018997193 .42166139V.3996582H.10398865V.12408447C.10398865 .0012512207 .19699097-.0107421879 .23298645-.0107421879 .3039856-.0107421879 .33198548 .060180665 .33198548 .12408447V.12385559Z"/>
<path id="font_2_43" d="M.4149933 .119140628C.4149933 .12911988 .40499879 .12911988 .4019928 .12911988 .3929901 .12911988 .3909912 .12512207 .3889923 .119140628 .3600006 .026229859 .29499818 .014251709 .2579956 .014251709 .20498657 .014251709 .116989139 .0572052 .116989139 .21801758 .116989139 .38093568 .19898987 .42323304 .2519989 .42323304 .26098634 .42323304 .32398988 .42222596 .35899354 .38594056 .31799317 .38293458 .31199647 .3529358 .31199647 .3399353 .31199647 .31393434 .32998658 .2939453 .35798646 .2939453 .38398744 .2939453 .4039917 .3109436 .4039917 .34094239 .4039917 .40911866 .32798768 .4482422 .25099183 .4482422 .12599182 .4482422 .033996583 .3399353 .033996583 .21601868 .033996583 .08816528 .1329956-.0107421879 .24899292-.0107421879 .3829956-.0107421879 .4149933 .10914612 .4149933 .119140628Z"/>
<path id="font_2_77" d="M.5349884 0V.0309906C.48298646 .0309906 .45799256 .0309906 .45700074 .061019899V.25221253C.45700074 .3383026 .45700074 .36932374 .42599488 .405365 .4119873 .42237855 .3789978 .4423828 .32099916 .4423828 .24798584 .4423828 .20098877 .39935304 .17298889 .33729554V.4423828L.03199768 .43066407V.3996582C.101989749 .3996582 .10998535 .39266969 .10998535 .34370423V.07595825C.10998535 .0309906 .09899902 .0309906 .03199768 .0309906V0L.14498902 .0029907227 .25698854 0V.0309906C.18998719 .0309906 .1789856 .0309906 .1789856 .07595825V.25978089C.1789856 .36431886 .25 .42037965 .31399537 .42037965 .3769989 .42037965 .3880005 .36631776 .3880005 .30926515V.076034549C.3880005 .0309906 .3769989 .0309906 .30999757 .0309906V0L.4229889 .0029907227 .5349884 0Z"/>
<path id="font_2_59" d="M.4850006 .40411378C.4850006 .42111207 .47299195 .453125 .43399049 .453125 .4139862 .453125 .36999513 .44711305 .32798768 .40611268 .28599549 .43937684 .24398804 .4423828 .22200012 .4423828 .1289978 .4423828 .05999756 .37338258 .05999756 .29638673 .05999756 .25239564 .08198547 .21440125 .10699463 .19340515 .09399414 .17840576 .07598877 .14538574 .07598877 .11035156 .07598877 .07899475 .08898926 .04083252 .11999512 .020828248 .05999756 .003829956 .027999878-.039138795 .027999878-.07911682 .027999878-.15107727 .1269989-.20605469 .24899292-.20605469 .36698915-.20605469 .47099305-.15507508 .47099305-.07711792 .47099305-.042144777 .45700074 .008834839 .4059906 .036834718 .35299684 .064834598 .29499818 .064834598 .23399353 .064834598 .20899964 .064834598 .1659851 .064834598 .15899658 .065841678 .1269989 .069885257 .10598755 .101242069 .10598755 .13334656 .10598755 .13735962 .10598755 .16040039 .12298584 .18040467 .1619873 .15240479 .20298767 .14941406 .22200012 .14941406 .31498719 .14941406 .38398744 .21839905 .38398744 .2953949 .38398744 .3323822 .36799623 .36938478 .34298707 .39237977 .3789978 .42637635 .4149933 .43138124 .43299867 .43138124 .43299867 .43112184 .43998719 .43112184 .44299317 .43011476 .43199159 .42611695 .4269867 .41513063 .4269867 .40315248 .4269867 .38616944 .43998719 .37417604 .45599366 .37417604 .46598817 .37417604 .4850006 .3811798 .4850006 .4041443V.40411378M.30899049 .29626466C.30899049 .26930238 .30799867 .2373352 .29299928 .21235657 .2849884 .20037842 .2619934 .17240906 .22200012 .17240906 .1349945 .17240906 .1349945 .2722931 .1349945 .29527284 .1349945 .3222351 .13598633 .35420228 .15098572 .3791809 .15899658 .3913269 .18199158 .41937257 .22200012 .41937257 .30899049 .41937257 .30899049 .31922914 .30899049 .29618836V.29626466M.4189911-.07911682C.4189911-.13308716 .34799195-.18305969 .25-.18305969 .14898682-.18305969 .07998657-.13209534 .07998657-.07911682 .07998657-.03314209 .117996219 .003829956 .1619873 .0068359377H.22099304C.30699159 .0068359377 .4189911 .0068359377 .4189911-.07911682Z"/>
<path id="font_2_72" d="M.25498963 0V.0309906C.18798828 .0309906 .1769867 .0309906 .1769867 .07601929V.69433596L.032989503 .6826172V.6516113C.102996829 .6516113 .11099243 .64460757 .11099243 .5956421V.07595825C.11099243 .0309906 .099990848 .0309906 .032989503 .0309906V0L.14399719 .0029907227 .25498963 0Z"/>
<path id="font_1_1" d="M.15899658 .07795715C.14898682 .038986207 .14698792 .0309906 .067993167 .0309906 .050994874 .0309906 .039993287 .0309906 .039993287 .011993408 .039993287 0 .04899597 0 .067993167 0H.39898683C.6069946 0 .80400088 .21087647 .80400088 .42974855 .80400088 .5706482 .71899417 .6826172 .56900027 .6826172H.23298645C.21398926 .6826172 .20298767 .6826172 .20298767 .66360476 .20298767 .6516113 .21199036 .6516113 .23199463 .6516113 .24499512 .6516113 .2630005 .65060427 .2749939 .6496124 .29100038 .6476135 .29699708 .64460757 .29699708 .6336212 .29699708 .6296234 .29599 .62661746 .29299928 .614624L.15899658 .07795715M.375 .6136322C.38398744 .64860537 .38598634 .6516113 .42900086 .6516113H.5359955C.6339874 .6516113 .71699526 .5986328 .71699526 .46672059 .71699526 .41775514 .69699099 .25386048 .6119995 .1439209 .58299258 .10694885 .5039978 .0309906 .3809967 .0309906H.2679901C.2539978 .0309906 .2519989 .0309906 .24598694 .03199768 .23599243 .032989503 .23298645 .033996583 .23298645 .041992189 .23298645 .04498291 .23298645 .04698181 .23799134 .064971927L.375 .6136322Z"/>
<path id="font_3_1" d="M.20298767 .3371582V.4501953L.036987306 .44218446V.39518739C.09899902 .39518739 .10598755 .39518739 .10598755 .35617066V.04699707H.036987306V0C.07199097 .0009918213 .116989139 .0029907227 .16299439 .0029907227 .20098877 .0029907227 .2649994 .0029907227 .30099488 0V.04699707H.21398926V.22209168C.21398926 .2921753 .23899842 .41418458 .33898927 .41418458 .33799745 .41319276 .31999208 .39718629 .31999208 .36819459 .31999208 .3271942 .35198976 .30718995 .3809967 .30718995 .4099884 .30718995 .44198609 .32818605 .44198609 .36819459 .44198609 .42118836 .3880005 .4501953 .33599855 .4501953 .2659912 .4501953 .22599793 .40019227 .20298767 .3371582Z"/>
<path id="font_4_1" d="M.4229889 .16229248C.41799928 .14228821 .40899659 .104263309 .40699769 .103256229 .3880005 .072250369 .34799195 .018234253 .28599549 .018234253 .21699524 .018234253 .21699524 .08325195 .21699524 .101257327 .21699524 .16029358 .24499512 .23132324 .272995 .3043518 .2809906 .32435609 .2869873 .33937074 .2869873 .3553772 .2869873 .4073944 .24299622 .44140626 .19198609 .44140626 .09199524 .44140626 .04699707 .3043518 .04699707 .28834535 .04699707 .27534486 .06098938 .27534486 .06399536 .27534486 .07798767 .27534486 .07899475 .28033448 .08198547 .29135133 .10598755 .37338258 .1499939 .4133911 .18899536 .4133911 .20599365 .4133911 .21398926 .40238954 .21398926 .37838746 .21398926 .3553772 .20599365 .33436585 .19599915 .3113556 .14199829 .17329407 .14199829 .14428711 .14199829 .117263797 .14199829 .1002655 .14199829 .054244996 .1789856 .022232056 .20799256-.0017700195 .24699402-.009765625 .28199769-.009765625 .34498597-.009765625 .3789978 .024230957 .4119873 .056243898 .43399049-.0077667238 .5009918-.009765625 .5130005-.009765625 .5469971-.009765625 .57299807 .010223389 .59199526 .04324341 .6139984 .08226013 .6279907 .14027405 .6279907 .14328003 .6279907 .15628052 .6139984 .15628052 .61099246 .15628052 .5970001 .15628052 .59599307 .15228272 .58898928 .12527466 .57699587 .07824707 .55799868 .018234253 .5159912 .018234253 .48999024 .018234253 .48298646 .041229249 .48298646 .06724548 .48298646 .08425903 .4909973 .120269779 .49798585 .14628601 .5049896 .17329407 .5149994 .21430969 .519989 .23632813L.54299929 .32536317C.548996 .3503723 .55999758 .39439393 .55999758 .3993988 .55999758 .41940309 .5439911 .43139649 .5269928 .43139649 .48999024 .43139649 .48298646 .40238954 .47499085 .3703766L.4229889 .16229248Z"/>
<path id="font_5_1" d="M.3889923 .27801515 .18899536 .47720338C.1769867 .48919679 .1749878 .49121095 .16699219 .49121095 .15699768 .49121095 .14698792 .48220826 .14698792 .47120667 .14698792 .46420289 .14898682 .46218873 .1599884 .45118714L.3600006 .24998474 .1599884 .048797609C.14898682 .03779602 .14698792 .03578186 .14698792 .028778077 .14698792 .01777649 .15699768 .0087890629 .16699219 .0087890629 .1749878 .0087890629 .1769867 .010787964 .18899536 .022781373L.3880005 .2219696 .59498599 .014785767C.5970001 .0137786869 .60398867 .0087890629 .6100006 .0087890629 .621994 .0087890629 .6299896 .01777649 .6299896 .028778077 .6299896 .030776978 .6299896 .03479004 .6269989 .039794923 .6259918 .041793825 .46699525 .19894409 .4169922 .24998474L.59999087 .4331665C.6049957 .43917848 .6199951 .45217896 .625 .45819093 .6259918 .46018983 .6299896 .46420289 .6299896 .47120667 .6299896 .48220826 .621994 .49121095 .6100006 .49121095 .60198977 .49121095 .59799197 .48719789 .58699038 .4761963L.3889923 .27801515Z"/>
<path id="font_4_2" d="M.5339966 .3633728C.5339966 .44140626 .4869995 .44239808 .48399354 .44239808 .45799256 .44239808 .42999269 .41540528 .42999269 .38938905 .42999269 .3723755 .43998719 .36437989 .44699098 .35836793 .46398927 .3443756 .48399354 .31835938 .48399354 .27833558 .48399354 .23332215 .41799928 .018234253 .29899598 .018234253 .21798706 .018234253 .21798706 .09025574 .21798706 .10726929 .21798706 .1532898 .23599243 .20930481 .272995 .3023529 .2809906 .32336427 .2869873 .33836366 .2869873 .3553772 .2869873 .4073944 .24299622 .44140626 .19198609 .44140626 .09199524 .44140626 .04699707 .3043518 .04699707 .28834535 .04699707 .27534486 .06098938 .27534486 .06399536 .27534486 .07798767 .27534486 .07899475 .28033448 .08198547 .29135133 .10598755 .37338258 .14898682 .4133911 .18899536 .4133911 .20599365 .4133911 .21398926 .40238954 .21398926 .37838746 .21398926 .3553772 .20599365 .33436585 .19599915 .3113556 .15299988 .20030213 .14199829 .1572876 .14199829 .121276859 .14199829 .022232056 .21998596-.009765625 .29599-.009765625 .46398927-.009765625 .5339966 .28134156 .5339966 .3633728Z"/>
<path id="font_2_66" d="M.24699402 0V.0309906C.18099976 .0309906 .1769867 .035995485 .1769867 .075042728V.4423828L.036987306 .43066407V.3996582C.101989749 .3996582 .11099243 .3936615 .11099243 .3447113V.07595825C.11099243 .0309906 .099990848 .0309906 .032989503 .0309906V0L.14299011 .0029907227C.17799378 .0029907227 .21299744 .0009918213 .24699402 0M.19198609 .603775C.19198609 .6307678 .16899109 .6567688 .13899231 .6567688 .10499573 .6567688 .084991458 .6287689 .084991458 .603775 .084991458 .57676699 .10798645 .55078127 .13798523 .55078127 .17199707 .55078127 .19198609 .5787811 .19198609 .603775Z"/>
<path id="font_2_47" d="M.5269928 0V.0309906C.45700074 .0309906 .44898988 .038009645 .44898988 .0871582V.69433596L.30499269 .6826172V.6516113C.375 .6516113 .3829956 .64463809 .3829956 .59580996V.38035584C.35398866 .41636659 .31098939 .4423828 .25698854 .4423828 .13899231 .4423828 .033996583 .3443451 .033996583 .21531677 .033996583 .088272098 .13198853-.0107421879 .24598694-.0107421879 .30999757-.0107421879 .35499574 .023254395 .37998963 .055267335V-.0107421879L.5269928 0M.37998963 .117996219C.37998963 .099990848 .37998963 .09799194 .36898805 .08099365 .33898927 .033218385 .2939911 .011245728 .25099183 .011245728 .20599365 .011245728 .16999817 .037216188 .1459961 .075164798 .11999512 .1161499 .116989139 .17320252 .116989139 .21421814 .116989139 .25125123 .11898804 .31129457 .147995 .35632325 .16899109 .38734437 .20698548 .42037965 .26098634 .42037965 .29599 .42037965 .33799745 .405365 .36898805 .3603363 .37998963 .34332276 .37998963 .34132386 .37998963 .32330323V.117996219Z"/>
<path id="font_2_98" d="M.3600006 .12823487C.3600006 .18122864 .32998658 .21122742 .31799317 .22323609 .2849884 .25523377 .24598694 .26322938 .20399475 .27124024 .147995 .28224183 .08099365 .29522706 .08099365 .35324098 .08099365 .38822938 .10699463 .42922975 .19299317 .42922975 .30299378 .42922975 .30799867 .3392334 .30999757 .30822755 .31098939 .2992401 .32199098 .2992401 .32199098 .2992401 .33499146 .2992401 .33499146 .30422975 .33499146 .32322694V.4242401C.33499146 .4412384 .33499146 .4482422 .32398988 .4482422 .31900025 .4482422 .31698609 .4482422 .3039856 .43623353 .30099488 .43223573 .29100038 .42323304 .2869873 .42022706 .24899292 .4482422 .20799256 .4482422 .19299317 .4482422 .070999149 .4482422 .032989503 .38124085 .032989503 .3252411 .032989503 .29023744 .04899597 .26223756 .07598877 .24023438 .10798645 .2142334 .13598633 .2082367 .20799256 .19422913 .22999573 .19021607 .31199647 .17422486 .31199647 .10221863 .31199647 .051223756 .2769928 .011245728 .19898987 .011245728 .114990238 .011245728 .07899475 .068222049 .05999756 .1532135 .056991579 .16621399 .055999757 .17021179 .04598999 .17021179 .032989503 .17021179 .032989503 .16322327 .032989503 .1452179V.013214111C.032989503-.003753662 .032989503-.0107421879 .04399109-.0107421879 .04899597-.0107421879 .049987794-.009750366 .068984989 .009246826 .070999149 .011245728 .070999149 .013214111 .08898926 .032226564 .1329956-.009750366 .17799378-.0107421879 .19898987-.0107421879 .31399537-.0107421879 .3600006 .05621338 .3600006 .1282196V.12823487Z"/>
<path id="font_2_109" d="M.5349884 0V.0309906C.46499635 .0309906 .45700074 .037994386 .45700074 .08705139V.4423828L.30999757 .43066407V.3996582C.37998963 .3996582 .3880005 .39266969 .3880005 .34373475V.16601563C.3880005 .07910156 .33999635 .011245728 .2669983 .011245728 .18299866 .011245728 .1789856 .058135988 .1789856 .11009216V.4423828L.03199768 .43066407V.3996582C.10998535 .3996582 .10998535 .39666749 .10998535 .3078003V.15802002C.10998535 .080093387 .10998535-.0107421879 .2619934-.0107421879 .31799317-.0107421879 .3619995 .017242432 .3909912 .07910156V-.0107421879L.5349884 0Z"/>
<path id="font_2_55" d="M.35699464 .63479617C.35699464 .6717987 .31999208 .7050781 .2669983 .7050781 .19699097 .7050781 .11199951 .65179446 .11199951 .5457611V.43066407H.032989503V.3996582H.11199951V.07595825C.11199951 .0309906 .100997928 .0309906 .033996583 .0309906V0L.147995 .0029907227C.18798828 .0029907227 .23498535 .0029907227 .2749939 0V.0309906H.2539978C.17999268 .0309906 .17799378 .04197693 .17799378 .07795715V.3996582H.2919922V.43066407H.1749878V.5467529C.1749878 .63479617 .22299195 .68307498 .2669983 .68307498 .269989 .68307498 .2849884 .68307498 .2999878 .675827 .28799439 .6717987 .269989 .6587982 .269989 .6338043 .269989 .61079409 .28599549 .5907898 .31298829 .5907898 .34199525 .5907898 .35699464 .61079409 .35699464 .63479617Z"/>
<path id="font_1_2" d="M.644989 .69506838C.644989 .69807437 .6429901 .7050781 .6339874 .7050781 .6289978 .7050781 .6279907 .70407107 .6159973 .6900635L.56799319 .6330414C.5419922 .68006899 .48999024 .7050781 .4249878 .7050781 .2979889 .7050781 .17799378 .58999636 .17799378 .4689026 .17799378 .38783265 .23098755 .34179688 .28199769 .32678224L.3889923 .2987671C.42599488 .2897644 .48098756 .27474977 .48098756 .19267273 .48098756 .1026001 .39898683 .008529663 .30099488 .008529663 .23699951 .008529663 .12599182 .030548096 .12599182 .15464783 .12599182 .17866516 .1309967 .2026825 .13198853 .20869446 .1329956 .21269226 .13398743 .21369934 .13398743 .21569824 .13398743 .22570801 .1269989 .22669983 .12199402 .22669983 .116989139 .22669983 .114990238 .22570801 .11199951 .22270203 .10798645 .21870423 .051986696-.009475708 .051986696-.012466431 .051986696-.018463135 .056991579-.022460938 .06298828-.022460938 .067993167-.022460938 .068984989-.021469117 .08099365-.007461548L.12998963 .049560548C.17298889-.008468628 .24099732-.022460938 .29899598-.022460938 .43499757-.022460938 .5529938 .11061096 .5529938 .2347107 .5529938 .30377198 .5189972 .33779908 .5039978 .35180665 .48098756 .37483216 .46598817 .37882997 .3769989 .40185548 .35499574 .40785218 .31900025 .41786195 .30999757 .41986085 .2829895 .42886354 .24899292 .457901 .24899292 .51094058 .24899292 .59199526 .32899476 .677063 .42399598 .677063 .5069885 .677063 .56799319 .6340332 .56799319 .52194216 .56799319 .48991395 .56399539 .47190858 .56399539 .4658966 .56399539 .4649048 .56399539 .45588685 .57598879 .45588685 .58599856 .45588685 .58699038 .45889283 .59098818 .47590638L.644989 .69506838Z"/>
</defs>
<path transform="matrix(1.00003,0,0,-1,22.733239,62.029)" stroke-width=".3985" stroke-linecap="butt" stroke-miterlimit="10" stroke-linejoin="miter" fill="none" stroke="#000000" d="M-8.13573 0H70.06584"/>
<path transform="matrix(1.00003,0,0,-1,92.801189,62.029)" d="M1.99252 0-1.19551 1.59401 0 0-1.19551-1.59401"/>
<use data-text="u" xlink:href="#font_1_3" transform="matrix(9.962899,0,0,-9.9626,98.313518,64.173999)"/>
<path transform="matrix(1.00003,0,0,-1,22.733239,62.029)" stroke-width=".3985" stroke-linecap="butt" stroke-miterlimit="10" stroke-linejoin="miter" fill="none" stroke="#000000" d="M0-8.13573V50.30779"/>
<path transform="matrix(0,-1,-1.00003,-0,22.733239,11.7212109)" d="M1.99252 0-1.19551 1.59401 0 0-1.19551-1.59401"/>
<use data-text="v" xlink:href="#font_1_4" transform="matrix(9.962899,0,0,-9.9626,20.14016,6.2089998)"/>
<path transform="matrix(1.00003,0,0,-1,22.733239,62.029)" d="M0 0V32.54228H55.78687V0ZM55.78687 32.54228" fill="#f2f2f2"/>
<path transform="matrix(1.00003,0,0,-1,22.733239,62.029)" stroke-width=".79701" stroke-linecap="butt" stroke-miterlimit="10" stroke-linejoin="miter" fill="none" stroke="#000000" d="M0 0V32.54228H55.78687V0ZM55.78687 32.54228"/>
<path transform="matrix(1.00003,0,0,-1,22.733239,62.029)" stroke-width="1.19553" stroke-linecap="butt" stroke-miterlimit="10" stroke-linejoin="miter" fill="none" stroke="#a60000" d="M0 0H20.05649"/>
<path transform="matrix(1.00003,0,0,-1,42.79033,62.029)" d="M3.18808 0-1.91284 2.55046 0 0-1.91284-2.55046" fill="#a60000"/>
<path transform="matrix(1.00003,0,0,-1,22.733239,62.029)" stroke-width="1.19553" stroke-linecap="butt" stroke-miterlimit="10" stroke-linejoin="miter" fill="none" stroke="#a60000" d="M55.78687 0V14.24535"/>
<path transform="matrix(0,-1,-1.00003,-0,78.52178,47.78365)" d="M3.18808 0-1.91284 2.55046 0 0-1.91284-2.55046" fill="#a60000"/>
<path transform="matrix(1.00003,0,0,-1,22.733239,62.029)" stroke-width="1.19553" stroke-linecap="butt" stroke-miterlimit="10" stroke-linejoin="miter" fill="none" stroke="#a60000" d="M55.78687 32.54228H35.73036"/>
<path transform="matrix(-1.00003,-0,0,1,58.46467,29.486721)" d="M3.18808 0-1.91284 2.55046 0 0-1.91284-2.55046" fill="#a60000"/>
<path transform="matrix(1.00003,0,0,-1,22.733239,62.029)" stroke-width="1.19553" stroke-linecap="butt" stroke-miterlimit="10" stroke-linejoin="miter" fill="none" stroke="#a60000" d="M0 32.54228V18.29689"/>
<path transform="matrix(0,1,1.00003,0,22.733239,43.73211)" d="M3.18808 0-1.91284 2.55046 0 0-1.91284-2.55046" fill="#a60000"/>
<use data-text="p" xlink:href="#font_2_84" transform="matrix(9.962899,0,0,-9.9626,1.2175903,81.893)"/>
<use data-text="a" xlink:href="#font_2_28" transform="matrix(9.962899,0,0,-9.9626,6.7569658,81.893)"/>
<use data-text="r" xlink:href="#font_2_96" transform="matrix(9.962899,0,0,-9.9626,11.738419,81.893)"/>
<use data-text="a" xlink:href="#font_2_28" transform="matrix(9.962899,0,0,-9.9626,15.643875,81.893)"/>
<use data-text="m" xlink:href="#font_2_75" transform="matrix(9.962899,0,0,-9.9626,20.625329,81.893)"/>
<use data-text="e" xlink:href="#font_2_50" transform="matrix(9.962899,0,0,-9.9626,28.92443,81.893)"/>
<use data-text="t" xlink:href="#font_2_105" transform="matrix(9.962899,0,0,-9.9626,33.347955,81.893)"/>
<use data-text="e" xlink:href="#font_2_50" transform="matrix(9.962899,0,0,-9.9626,37.223535,81.893)"/>
<use data-text="r" xlink:href="#font_2_96" transform="matrix(9.962899,0,0,-9.9626,41.64707,81.893)"/>
<use data-text="r" xlink:href="#font_2_96" transform="matrix(9.962899,0,0,-9.9626,48.87017,81.893)"/>
<use data-text="e" xlink:href="#font_2_50" transform="matrix(9.962899,0,0,-9.9626,52.775629,81.893)"/>
<use data-text="c" xlink:href="#font_2_43" transform="matrix(9.962899,0,0,-9.9626,57.19915,81.893)"/>
<use data-text="t" xlink:href="#font_2_105" transform="matrix(9.962899,0,0,-9.9626,61.62269,81.893)"/>
<use data-text="a" xlink:href="#font_2_28" transform="matrix(9.962899,0,0,-9.9626,65.49827,81.893)"/>
<use data-text="n" xlink:href="#font_2_77" transform="matrix(9.962899,0,0,-9.9626,70.4797,81.893)"/>
<use data-text="g" xlink:href="#font_2_59" transform="matrix(9.962899,0,0,-9.9626,76.019069,81.893)"/>
<use data-text="l" xlink:href="#font_2_72" transform="matrix(9.962899,0,0,-9.9626,81.00051,81.893)"/>
<use data-text="e" xlink:href="#font_2_50" transform="matrix(9.962899,0,0,-9.9626,83.77021,81.893)"/>
<use data-text="D" xlink:href="#font_1_1" transform="matrix(9.962899,0,0,-9.9626,91.51231,81.893)"/>
<path transform="matrix(1.00003,0,0,-1,22.733239,62.029)" stroke-width=".79701" stroke-linecap="butt" stroke-miterlimit="10" stroke-linejoin="miter" fill="none" stroke="#000000" d="M79.03145 17.43343H108.98383"/>
<path transform="matrix(1.00003,0,0,-1,131.72034,44.59557)" d="M2.59026 0-1.55415 2.0722 0 0-1.55415-2.0722"/>
<use data-text="r" xlink:href="#font_3_1" transform="matrix(9.962899,0,0,-9.9626,115.68003,41.076)"/>
<path transform="matrix(1.00003,0,0,-1,22.733239,62.029)" d="M141.79213-2.32458 213.85297 8.13573 224.31334 38.35481 152.25246 27.89445Z" fill="#ededff"/>
<path transform="matrix(1.00003,0,0,-1,22.733239,62.029)" stroke-width=".79701" stroke-linecap="butt" stroke-miterlimit="10" stroke-linejoin="miter" fill="none" stroke="#000000" d="M141.79213-2.32458 213.85297 8.13573 224.31334 38.35481 152.25246 27.89445Z"/>
<path transform="matrix(1.00003,0,0,-1,22.733239,62.029)" stroke-width="1.19553" stroke-linecap="butt" stroke-miterlimit="10" stroke-linejoin="miter" fill="none" stroke="#a60000" d="M141.79213-2.32458 168.90268 1.61081"/>
<path transform="matrix(.9896097,-.14363,-.14363432,-.98958,191.64099,60.418199)" d="M3.18808 0-1.91284 2.55046 0 0-1.91284-2.55046" fill="#a60000"/>
<path transform="matrix(1.00003,0,0,-1,22.733239,62.029)" stroke-width="1.19553" stroke-linecap="butt" stroke-miterlimit="10" stroke-linejoin="miter" fill="none" stroke="#a60000" d="M213.85297 8.13573 218.56342 21.74368"/>
<path transform="matrix(.32709984,-.94496,-.94498839,-.32709,241.30323,40.28533)" d="M3.18808 0-1.91284 2.55046 0 0-1.91284-2.55046" fill="#a60000"/>
<path transform="matrix(1.00003,0,0,-1,22.733239,62.029)" stroke-width="1.19553" stroke-linecap="butt" stroke-miterlimit="10" stroke-linejoin="miter" fill="none" stroke="#a60000" d="M224.31334 38.35481 197.20273 34.41936"/>
<path transform="matrix(-.9896097,.14363,.14363432,.98958,219.9419,27.60963)" d="M3.18808 0-1.91284 2.55046 0 0-1.91284-2.55046" fill="#a60000"/>
<path transform="matrix(1.00003,0,0,-1,22.733239,62.029)" stroke-width="1.19553" stroke-linecap="butt" stroke-miterlimit="10" stroke-linejoin="miter" fill="none" stroke="#a60000" d="M152.25246 27.89445 147.54203 14.28648"/>
<path transform="matrix(-.32709984,.94496,.94498839,.32709,170.2797,47.7425)" d="M3.18808 0-1.91284 2.55046 0 0-1.91284-2.55046" fill="#a60000"/>
<path transform="matrix(1.00003,0,0,-1,22.733239,62.029)" stroke-width="1.19553" stroke-linecap="butt" stroke-miterlimit="10" stroke-linejoin="miter" fill="none" stroke="#0000a6" d="M183.63245 16.27113 175.21048 45.74806"/>
<path transform="matrix(-.27469827,-.9615,-.9615289,.27469,197.949,16.280949)" d="M3.18808 0-1.91284 2.55046 0 0-1.91284-2.55046" fill="#0000a6"/>
<use data-text="r" xlink:href="#font_3_1" transform="matrix(9.962899,0,0,-9.9626,181.29502,7.8029978)" fill="#0000a6"/>
<use data-text="u" xlink:href="#font_4_1" transform="matrix(6.9740097,0,0,-6.9738,186.01416,9.2979969)" fill="#0000a6"/>
<use data-text="&#x00d7;" xlink:href="#font_5_1" transform="matrix(9.962899,0,0,-9.9626,193.43637,7.8029978)" fill="#0000a6"/>
<use data-text="r" xlink:href="#font_3_1" transform="matrix(9.962899,0,0,-9.9626,203.39968,7.8029978)" fill="#0000a6"/>
<use data-text="v" xlink:href="#font_4_2" transform="matrix(6.9740097,0,0,-6.9738,208.11782,9.2979969)" fill="#0000a6"/>
<use data-text="t" xlink:href="#font_2_105" transform="matrix(9.962899,0,0,-9.9626,174.12277,89.893)"/>
<use data-text="i" xlink:href="#font_2_66" transform="matrix(9.962899,0,0,-9.9626,177.99835,89.893)"/>
<use data-text="l" xlink:href="#font_2_72" transform="matrix(9.962899,0,0,-9.9626,180.76804,89.893)"/>
<use data-text="t" xlink:href="#font_2_105" transform="matrix(9.962899,0,0,-9.9626,183.53772,89.893)"/>
<use data-text="e" xlink:href="#font_2_50" transform="matrix(9.962899,0,0,-9.9626,187.41329,89.893)"/>
<use data-text="d" xlink:href="#font_2_47" transform="matrix(9.962899,0,0,-9.9626,191.8368,89.893)"/>
<use data-text="s" xlink:href="#font_2_98" transform="matrix(9.962899,0,0,-9.9626,200.69382,89.893)"/>
<use data-text="u" xlink:href="#font_2_109" transform="matrix(9.962899,0,0,-9.9626,204.6192,89.893)"/>
<use data-text="r" xlink:href="#font_2_96" transform="matrix(9.962899,0,0,-9.9626,210.15857,89.893)"/>
<use data-text="f" xlink:href="#font_2_55" transform="matrix(9.962899,0,0,-9.9626,214.06403,89.893)"/>
<use data-text="a" xlink:href="#font_2_28" transform="matrix(9.962899,0,0,-9.9626,217.11267,89.893)"/>
<use data-text="c" xlink:href="#font_2_43" transform="matrix(9.962899,0,0,-9.9626,222.09412,89.893)"/>
<use data-text="e" xlink:href="#font_2_50" transform="matrix(9.962899,0,0,-9.9626,226.51764,89.893)"/>
<use data-text="S" xlink:href="#font_1_2" transform="matrix(9.962899,0,0,-9.9626,234.25959,89.893)"/>
</svg>
